<svg width="40" height="40" viewBox="0 0 40 40" fill="none" xmlns="http://www.w3.org/2000/svg">
<circle cx="20" cy="20" r="20" fill="white"/>
<path d="M29.806 25.1162C29.806 25.0332 29.723 25.0332 29.723 24.9502C29.3909 24.286 28.6437 23.4558 27.6474 22.5425C27.1493 22.1274 26.9002 21.7953 26.7342 21.6293C26.4851 21.2972 26.4851 21.0481 26.5681 20.716C26.6512 20.467 26.9832 20.0518 27.5644 19.3046C27.8965 18.8895 28.0625 18.6404 28.3116 18.3914C29.5569 16.7309 30.1381 15.6516 29.972 15.1535L29.889 15.0705C29.806 14.9874 29.723 14.9044 29.5569 14.9044C29.3909 14.8214 29.1418 14.8214 28.8928 14.9044H25.7379C25.6549 14.9044 25.6549 14.9044 25.4888 14.9044C25.4058 14.9044 25.3228 14.9044 25.3228 14.9044H25.2398H25.1567L25.0737 14.9874C24.9907 15.0705 24.9907 15.0705 24.9907 15.1535C24.6586 16.0667 24.2435 16.8139 23.8284 17.6442C23.5793 18.0593 23.3302 18.4744 23.0812 18.8065C22.8321 19.1386 22.666 19.3877 22.5 19.5537C22.3339 19.7197 22.1679 19.8028 22.0849 19.9688C22.0018 20.0518 21.8358 20.1349 21.8358 20.0518C21.7528 20.0518 21.6698 20.0518 21.6698 19.9688C21.5867 19.8858 21.5037 19.8028 21.4207 19.7197C21.3377 19.6367 21.3377 19.4707 21.2546 19.3046C21.2546 19.1386 21.2546 18.9725 21.2546 18.8895C21.2546 18.8065 21.2546 18.5574 21.2546 18.3914C21.2546 18.1423 21.2546 17.9763 21.2546 17.8932C21.2546 17.6442 21.2546 17.3121 21.2546 16.98C21.2546 16.6479 21.2546 16.3988 21.2546 16.2328C21.2546 16.0667 21.2546 15.8177 21.2546 15.6516C21.2546 15.4026 21.2546 15.2365 21.2546 15.1535C21.2546 15.0705 21.1716 14.9044 21.1716 14.8214C21.0886 14.7384 21.0056 14.6553 20.9226 14.5723C20.8395 14.4893 20.6735 14.4893 20.5905 14.4063C20.1754 14.3233 19.6772 14.2402 19.0961 14.2402C17.7677 14.2402 16.8544 14.3233 16.5223 14.4893C16.3563 14.5723 16.1903 14.6553 16.1072 14.8214C15.9412 14.9874 15.9412 15.0705 16.0242 15.0705C16.4393 15.1535 16.7714 15.3195 16.9375 15.5686L17.0205 15.7346C17.1035 15.8177 17.1035 15.9837 17.1865 16.2328C17.2695 16.4818 17.2696 16.7309 17.2696 17.063C17.2696 17.5611 17.2696 18.0593 17.2696 18.3914C17.2696 18.8065 17.1865 19.0556 17.1865 19.3046C17.1865 19.5537 17.1035 19.7197 17.0205 19.8028C16.9375 19.9688 16.9375 20.0518 16.8544 20.0518C16.8544 20.0518 16.8544 20.1349 16.7714 20.1349C16.6884 20.1349 16.6054 20.2179 16.4393 20.2179C16.3563 20.2179 16.1903 20.1349 16.1072 20.0518C15.9412 19.9688 15.7751 19.8028 15.6921 19.6367C15.5261 19.4707 15.36 19.2216 15.194 18.8895C15.0279 18.5574 14.7789 18.2253 14.6128 17.7272L14.4468 17.3951C14.3638 17.2291 14.1977 16.897 14.0317 16.4819C13.8656 16.0667 13.6996 15.7346 13.5335 15.3195C13.4505 15.1535 13.3675 15.0705 13.2845 14.9874H13.2014C13.2014 14.9874 13.1184 14.9044 13.0354 14.9044C12.9524 14.9044 12.8693 14.8214 12.7863 14.8214H9.79749C9.4654 14.8214 9.29935 14.9044 9.21633 14.9874L9.1333 15.0705C9.1333 15.0705 9.1333 15.1535 9.1333 15.2365C9.1333 15.3195 9.13331 15.4025 9.21633 15.5686C9.63144 16.5649 10.1296 17.5611 10.6277 18.5574C11.1259 19.4707 11.624 20.3009 11.9561 20.8821C12.3712 21.4632 12.7033 22.0444 13.1184 22.5425C13.5335 23.0407 13.7826 23.3728 13.8656 23.5388C14.0317 23.7048 14.1147 23.7879 14.1977 23.8709L14.4468 24.12C14.6128 24.286 14.8619 24.5351 15.194 24.7841C15.5261 25.0332 15.9412 25.2823 16.3563 25.5313C16.7714 25.7804 17.2696 25.9465 17.7677 26.1125C18.3489 26.2786 18.847 26.3616 19.3451 26.2786H20.5905C20.8395 26.2786 21.0056 26.1955 21.1716 26.0295L21.2546 25.9465C21.2546 25.8634 21.3377 25.8634 21.3377 25.7804C21.3377 25.6974 21.3377 25.6144 21.3377 25.4483C21.3377 25.1162 21.3377 24.8672 21.4207 24.6181C21.5037 24.369 21.5037 24.203 21.5868 24.0369C21.6698 23.8709 21.7528 23.7879 21.8358 23.7048C21.9188 23.6218 22.0019 23.5388 22.0019 23.5388H22.0849C22.2509 23.4558 22.5 23.5388 22.666 23.7048C22.9151 23.8709 23.1642 24.12 23.3302 24.369C23.4963 24.6181 23.7453 24.8672 24.0774 25.1993C24.4095 25.5314 24.6586 25.7804 24.8246 25.8634L25.0737 26.0295C25.2397 26.1125 25.4058 26.1955 25.6549 26.2786C25.9039 26.3616 26.07 26.3616 26.236 26.3616L29.0588 26.2786C29.3079 26.2786 29.5569 26.1955 29.723 26.1125C29.889 26.0295 29.972 25.9465 29.972 25.7804C29.972 25.6974 29.972 25.5314 29.972 25.4483C29.806 25.2823 29.806 25.1993 29.806 25.1162Z" fill="#A89060"/>
</svg>
