<svg width="172" height="172" viewBox="0 0 172 172" fill="none" xmlns="http://www.w3.org/2000/svg">
<g filter="url(#filter0_d_103_92)">
<circle cx="86" cy="80" r="79" fill="#4A607A"/>
<path d="M86 40.5V81.3167L111.675 97.1167" stroke="#DDD0A4" stroke-width="5"/>
<rect x="83.3662" y="3.63281" width="3.95" height="7.9" fill="#DDD0A4"/>
<rect x="83.3662" y="148.465" width="3.95" height="7.9" fill="#DDD0A4"/>
<rect x="161.05" y="77.3672" width="3.95" height="7.9" transform="rotate(90 161.05 77.3672)" fill="#DDD0A4"/>
<rect x="139.147" y="134.305" width="3.95" height="7.9" transform="rotate(135 139.147 134.305)" fill="#DDD0A4"/>
<rect width="3.95" height="7.9" transform="matrix(-0.707106 0.707107 -0.707106 -0.707107 40.3967 28.9688)" fill="#DDD0A4"/>
<rect width="3.95" height="7.9" transform="matrix(0.707107 0.707107 0.707107 -0.707107 34.6492 135.619)" fill="#DDD0A4"/>
<rect width="3.95" height="7.9" transform="matrix(0.707107 0.707107 0.707107 -0.707107 134.717 32.9199)" fill="#DDD0A4"/>
<rect x="17.533" y="77.3672" width="3.95" height="7.9" transform="rotate(90 17.533 77.3672)" fill="#DDD0A4"/>
</g>
<defs>
<filter id="filter0_d_103_92" x="0" y="0" width="172" height="172" filterUnits="userSpaceOnUse" color-interpolation-filters="sRGB">
<feFlood flood-opacity="0" result="BackgroundImageFix"/>
<feColorMatrix in="SourceAlpha" type="matrix" values="0 0 0 0 0 0 0 0 0 0 0 0 0 0 0 0 0 0 127 0" result="hardAlpha"/>
<feOffset dy="6"/>
<feGaussianBlur stdDeviation="3.5"/>
<feColorMatrix type="matrix" values="0 0 0 0 0.192157 0 0 0 0 0.235294 0 0 0 0 0.282353 0 0 0 0.2 0"/>
<feBlend mode="normal" in2="BackgroundImageFix" result="effect1_dropShadow_103_92"/>
<feBlend mode="normal" in="SourceGraphic" in2="effect1_dropShadow_103_92" result="shape"/>
</filter>
</defs>
</svg>
