<svg width="184" height="184" viewBox="0 0 184 184" fill="none" xmlns="http://www.w3.org/2000/svg">
<g clip-path="url(#clip0_112_26)">
<path d="M182.012 10.746C181.967 8.94664 181.695 6.9575 180.025 5.84703C178.115 4.57916 175.914 5.43662 173.785 6.26822C168.673 8.26275 163.498 9.55901 157.501 10.3482C156.025 10.5423 154.986 11.896 155.18 13.372C155.374 14.8476 156.728 15.8876 158.204 15.6925C164.643 14.8458 170.217 13.4467 175.745 11.2901C175.942 11.2132 176.277 11.0828 176.626 10.9552C176.732 15.4208 175.556 18.8772 173.03 21.5201C168.955 25.7844 161.148 28.0542 149.824 28.2659C148.336 28.2939 147.152 29.523 147.18 31.0115C147.207 32.4828 148.408 33.6562 149.874 33.6562C149.891 33.6562 149.908 33.6562 149.925 33.6558C156.268 33.5372 161.616 32.8188 166.035 31.4866C166.111 35.1415 165.21 38.0535 163.301 40.3219C162.014 41.8514 160.232 43.1178 157.969 44.1201C157.947 44.1298 157.925 44.1384 157.905 44.1489C153.974 45.8739 148.6 46.8071 141.828 46.9311C140.339 46.9584 139.155 48.1871 139.182 49.6757C139.209 51.1473 140.411 52.3214 141.876 52.3214C141.893 52.3214 141.91 52.3214 141.927 52.321C147.682 52.2157 152.551 51.5678 156.586 50.3657C156.395 52.9489 155.476 55.3175 153.832 57.4357C150.235 62.0698 143.77 64.7022 138.716 65.3433C138.104 64.2113 137.413 63.098 136.646 62.0137C133.19 57.1151 127.874 52.9269 122.421 50.8088C116.461 48.5045 111.51 48.9548 108.832 52.0454C106.345 54.9287 106.457 59.7583 107.531 63.8027C105.275 63.443 102.981 63.03 100.664 62.5697V41.593C109.036 40.1192 116.266 35.5641 121.21 28.589L121.32 28.4348C128.125 18.9861 135.753 17.6705 145.786 16.8435C147.269 16.7214 148.373 15.4193 148.25 13.9358C148.128 12.4523 146.83 11.3462 145.343 11.4712C134.612 12.3557 125.069 14.0056 116.946 25.2842L116.812 25.4718C112.89 31.0054 107.231 34.707 100.664 36.101V28.796C104.903 25.9799 107.705 21.1622 107.705 15.7C107.705 7.04303 100.662 0 92.0049 0C83.3429 0 76.2952 7.04303 76.2952 15.7C76.2952 21.16 79.0965 25.9763 83.3361 28.7928V36.1014C76.7944 34.7088 71.1404 31.0133 67.2009 25.4887L67.0561 25.2863C58.186 12.9673 47.8687 12.1763 35.9223 11.2603C28.3952 10.6831 19.8637 10.0287 10.2252 6.26858C8.09448 5.43698 5.89115 4.577 3.9782 5.84811C2.30531 6.96001 2.03326 8.94772 1.98762 10.7417C1.82914 16.6678 3.5394 21.547 7.07206 25.2439C8.61558 26.8593 10.4872 28.2357 12.6945 29.3814C12.1673 35.2522 13.4675 40.0969 16.5822 43.797C18.029 45.5156 19.8367 46.9692 22.0192 48.1634C21.7486 52.8166 23.097 57.164 25.9702 60.8375C30.4221 66.5304 37.5165 69.4747 43.0908 70.4724C41.6666 74.9218 41.442 79.4186 42.5521 83.3847C44.3195 89.6996 49.1286 94.5979 56.8441 97.9423L70.85 104.021C66.5364 106.311 62.9067 108.805 60.0252 111.472C58.9327 112.483 58.8663 114.189 59.8775 115.281C60.4091 115.855 61.1314 116.146 61.8566 116.146C62.5114 116.146 63.168 115.908 63.6866 115.429C67.0492 112.317 71.6377 109.429 77.3353 106.836L85.2282 110.261L79.2173 112.871C69.9505 116.889 65.5898 121.168 65.8863 125.952C66.1756 130.623 70.9704 134.453 79.7517 137.029L85.2171 138.634C85.2289 138.638 85.2415 138.641 85.2534 138.645L112.198 146.559C120.943 149.123 126.285 154.375 126.853 160.967C127.295 166.101 124.633 171.007 120.227 173.174C115.834 175.336 112.996 175.305 112.238 175.021C112.264 174.651 112.49 173.516 114.085 171.296C117.569 166.464 118.672 162.384 117.456 158.824C116.299 155.436 113.114 152.949 107.991 151.432L75.244 141.721C74.5796 141.524 73.1097 141.032 73.0095 141.004C62.4726 137.366 56.82 131.481 57.7924 125.012C58.0135 123.54 56.9997 122.167 55.5277 121.946C54.0485 121.727 52.6828 122.739 52.4615 124.211C51.3118 131.86 55.8842 138.696 64.9537 143.417C57.2146 147.126 52.3997 153.254 51.7747 160.504C51.1426 167.835 55.0073 174.87 61.3912 178.011C64.3349 179.459 67.7443 180.553 70.6692 180.553C72.8204 180.552 74.7107 179.961 75.961 178.484C77.3813 176.807 78.2441 173.652 74.2863 168.143C71.9321 164.879 71.0437 162.33 71.6453 160.569C72.3432 158.526 75.2408 157.283 77.5502 156.599L83.3357 154.884V175.33C83.3357 180.11 87.2245 183.999 92.0046 183.999C96.7789 183.999 100.663 180.11 100.663 175.33V154.881L106.459 156.6C108.764 157.282 111.658 158.524 112.355 160.566C112.957 162.328 112.067 164.877 109.71 168.147C105.755 173.652 106.618 176.807 108.038 178.485C109.288 179.962 111.178 180.553 113.33 180.553C116.255 180.553 119.664 179.46 122.608 178.011C128.991 174.871 132.856 167.836 132.224 160.504C131.598 153.237 126.762 147.097 118.991 143.391C126.677 139.302 131.105 133.542 131.371 127.02C131.712 118.663 125.259 110.441 113.449 103.895L127.164 97.9426C134.876 94.5979 139.682 89.7007 141.448 83.3868C142.559 79.4158 142.333 74.9131 140.905 70.4598C146.523 69.4269 153.665 66.442 158.09 60.7416C160.92 57.095 162.247 52.7818 161.98 48.1659C164.166 46.9703 165.977 45.5141 167.426 43.7924C170.538 40.0919 171.836 35.2486 171.306 29.3811C173.513 28.2357 175.384 26.8593 176.927 25.2443C180.46 21.5474 182.171 16.6682 182.012 10.746ZM76.0199 151.432C70.8906 152.949 67.7026 155.437 66.5447 158.827C65.3285 162.387 66.4311 166.466 69.912 171.293C71.5091 173.516 71.7351 174.651 71.761 175.022C71.0034 175.305 68.1658 175.336 63.7717 173.175C59.3665 171.007 56.7039 166.101 57.1463 160.967C57.7145 154.375 63.0562 149.123 71.8138 146.555L72.2368 146.429C72.7212 146.587 82.525 149.502 82.525 149.502L76.0199 151.432ZM95.2727 175.331C95.2727 177.139 93.8069 178.609 92.0049 178.609C90.1973 178.609 88.7267 177.139 88.7267 175.331V153.287L92.006 152.315L95.2727 153.283V175.331ZM110.142 69.6443C111.528 71.5627 113.818 73.6891 117.545 74.9462C121.337 76.2256 122.379 77.4863 122.401 77.9747C122.452 79.1326 119.663 82.0158 113.305 84.8021L100.663 90.3436V68.0696C103.881 68.6909 107.053 69.2156 110.142 69.6443ZM92.0049 5.39062C97.6892 5.39062 102.314 10.0154 102.314 15.7C102.314 21.39 97.6895 26.0195 92.0049 26.0195C86.315 26.0195 81.6859 21.39 81.6859 15.7C81.6859 10.0154 86.315 5.39062 92.0049 5.39062ZM92.0049 31.4097C93.1255 31.4097 94.218 31.2893 95.2727 31.0651V39.2455V39.256V64.7565V64.7745V92.7069L91.9985 94.1422L88.7267 92.708V64.7701C88.7267 64.7648 88.7267 64.7594 88.7267 64.754V39.256C88.7267 39.2524 88.7267 39.2491 88.7267 39.2455V31.0633C89.7847 31.2886 90.8808 31.4097 92.0049 31.4097ZM73.8579 69.6436C76.9816 69.2106 80.1538 68.6877 83.3361 68.0721V90.3447L70.6951 84.8028C64.3413 82.0155 61.5551 79.1311 61.6061 77.9732C61.6277 77.4855 62.6688 76.2252 66.4523 74.9473C70.1765 73.6949 72.4672 71.5684 73.8579 69.6436ZM30.2169 57.5169C28.5415 55.3746 27.6067 52.9787 27.4148 50.3653C31.4495 51.5681 36.3191 52.2161 42.0745 52.3218C42.0914 52.3221 42.1082 52.3221 42.1251 52.3221C43.5907 52.3221 44.7921 51.1473 44.819 49.6764C44.846 48.1879 43.6618 46.9592 42.1737 46.9319C31.4542 46.7356 24.2319 44.5133 20.7075 40.3262C18.7977 38.0571 17.895 35.1444 17.9687 31.4877C22.3865 32.8196 27.7343 33.5372 34.0755 33.6562C34.0927 33.6565 34.11 33.6565 34.1272 33.6565C35.5924 33.6565 36.7934 32.4825 36.8211 31.0119C36.8488 29.5234 35.6646 28.2943 34.1768 28.2663C22.8529 28.0546 15.0455 25.7852 10.9706 21.5204C8.44523 18.8776 7.269 15.4208 7.37573 10.952C7.72828 11.0802 8.06753 11.2129 8.26662 11.2905C18.6515 15.3424 27.6078 16.0292 35.5098 16.6351C46.9846 17.5149 55.275 18.1506 62.6893 28.4474L62.8118 28.6185C67.7744 35.5778 74.9972 40.1224 83.3361 41.5937V62.5726C81.039 63.0304 78.7462 63.4426 76.4702 63.8045C77.5444 59.763 77.6576 54.9315 75.1693 52.0476C72.5002 48.9512 67.5495 48.5005 61.5871 50.8106C56.1321 52.9255 50.8116 57.114 47.3544 62.0148C46.5861 63.1005 45.895 64.2156 45.2826 65.3491C40.2801 64.7518 33.8462 62.1578 30.2169 57.5169ZM95.2727 114.621V134.049L92.0028 135.01L88.7267 134.048V114.62L91.9974 113.2L95.2727 114.621ZM102.637 117.818C110.233 121.111 112.833 124.007 112.733 125.62C112.629 127.295 109.495 129.873 102.728 131.858L100.663 132.465V116.961L102.637 117.818ZM71.2668 125.62C71.1673 124.007 73.7667 121.111 81.3635 117.817L83.3361 116.961V132.464L81.2704 131.858C74.5041 129.873 71.3707 127.294 71.2668 125.62ZM125.985 126.8C125.753 132.459 120.537 137.522 111.63 140.769L101.571 137.816L104.247 137.03C113.029 134.454 117.824 130.623 118.113 125.953C118.409 121.168 114.049 116.889 104.783 112.872L58.9895 92.9969C52.8359 90.3296 49.0521 86.6068 47.7436 81.9321C46.3449 76.9343 47.8453 70.6513 51.7571 65.1252C51.7582 65.1241 51.7589 65.1227 51.76 65.1216C54.6292 61.0538 59.0312 57.5826 63.5356 55.8364C66.9716 54.5053 70.0766 54.3943 71.0875 55.5676C72.3867 57.0734 71.8275 62.3548 70.0241 65.6481C69.2774 66.999 67.7532 68.8221 64.7313 69.8384C59.2328 71.6946 56.3693 74.3522 56.2209 77.736C55.9859 83.09 62.7849 87.2185 68.5302 89.7388L104.924 105.695C118.41 111.604 126.283 119.494 125.985 126.8ZM136.257 81.9346C134.95 86.6086 131.169 90.3303 125.019 92.9976L107.112 100.769C107.104 100.765 107.097 100.762 107.089 100.758L98.7112 97.0851L115.469 89.7392C121.217 87.2203 128.021 83.0936 127.786 77.7382C127.637 74.3529 124.771 71.6953 119.267 69.8384C116.245 68.8189 114.721 66.9972 113.981 65.6585C112.173 62.3548 111.613 57.0734 112.909 55.5719C113.941 54.3806 116.982 54.487 120.472 55.8361C124.972 57.5837 129.371 61.0553 132.243 65.1256C136.155 70.6524 137.656 76.9361 136.257 81.9346Z" fill="#193554"/>
</g>
<defs>
<clipPath id="clip0_112_26">
<rect width="184" height="184" fill="white"/>
</clipPath>
</defs>
</svg>
