<svg width="56" height="30" viewBox="0 0 56 30" fill="none" xmlns="http://www.w3.org/2000/svg">
<g filter="url(#filter0_d_112_50)">
<path d="M41.2 0C38.32 0 35.6 1.14608 33.65 3.14142L28 8.25765L27.99 8.24739L24.96 10.9795L24.9799 10.9999L19.59 15.8911C18.31 17.1906 16.61 17.907 14.8 17.907C11.06 17.907 8.02 14.8065 8.02 11C8.02 7.1935 11.06 4.09304 14.8 4.09304C16.61 4.09304 18.31 4.80935 19.68 6.20091L21.9499 8.25765L24.9699 5.52557L22.4399 3.23351C20.3999 1.15634 17.6898 0.0102655 14.7999 0.0102655C8.84003 9.48452e-07 4 4.93214 4 11C4 17.0679 8.84003 22 14.8 22C17.68 22 20.39 20.8539 22.35 18.8688L28 13.7424L28.01 13.7526L31.03 11.0103L31.02 11L36.4099 6.11908C37.69 4.80935 39.39 4.09304 41.2 4.09304C44.94 4.09304 47.98 7.1935 47.98 11C47.98 14.8065 44.94 17.907 41.2 17.907C39.39 17.907 37.69 17.1906 36.32 15.8093L34.0501 13.7525L31.03 16.4949L33.56 18.7869C35.6 20.8641 38.3101 21.9999 41.1901 21.9999C47.16 22 52 17.0679 52 11C52 4.93214 47.16 0 41.2 0Z" fill="#0D1C41"/>
</g>
<defs>
<filter id="filter0_d_112_50" x="0" y="0" width="56" height="30" filterUnits="userSpaceOnUse" color-interpolation-filters="sRGB">
<feFlood flood-opacity="0" result="BackgroundImageFix"/>
<feColorMatrix in="SourceAlpha" type="matrix" values="0 0 0 0 0 0 0 0 0 0 0 0 0 0 0 0 0 0 127 0" result="hardAlpha"/>
<feOffset dy="4"/>
<feGaussianBlur stdDeviation="2"/>
<feComposite in2="hardAlpha" operator="out"/>
<feColorMatrix type="matrix" values="0 0 0 0 0 0 0 0 0 0 0 0 0 0 0 0 0 0 0.25 0"/>
<feBlend mode="normal" in2="BackgroundImageFix" result="effect1_dropShadow_112_50"/>
<feBlend mode="normal" in="SourceGraphic" in2="effect1_dropShadow_112_50" result="shape"/>
</filter>
</defs>
</svg>
