<svg width="106" height="106" viewBox="0 0 106 106" fill="none" xmlns="http://www.w3.org/2000/svg">
<g clip-path="url(#clip0_112_283)">
<path d="M57.5885 32.5602L57.5885 32.5602C60.9284 29.2201 65.3588 27.3848 70.0822 27.3848C88.9555 27.3848 104.313 42.7427 104.313 61.6161V74.0371V103.021C104.313 103.632 103.818 104.127 103.208 104.127C98.0135 104.127 93.4879 101.179 91.2208 96.8555L90.712 95.8851L89.6203 95.7915C84.2061 95.3275 79.6849 91.6544 77.9846 86.6794L77.5902 85.5253L76.3835 85.3476C69.8606 84.3869 64.8369 78.7487 64.8369 71.9668V65.7559C64.8369 59.5142 59.7621 54.4395 53.5205 54.4395C47.2789 54.4395 42.2041 59.5142 42.2041 65.7559V71.9668C42.2041 78.7487 37.1804 84.3869 30.6575 85.3478L29.4509 85.5255L29.0564 86.6796C27.3559 91.6546 22.8347 95.3276 17.4206 95.7917L16.329 95.8853L15.8202 96.8557C13.5531 101.179 9.02754 104.127 3.83301 104.127C3.22253 104.127 2.72754 103.632 2.72754 103.021V74.0371V61.6161C2.72754 42.7427 18.0855 27.3848 36.9588 27.3848C41.6821 27.3848 46.1125 29.2201 49.4524 32.5601C50.3627 33.4706 51.1595 34.4619 51.8391 35.517L53.5207 38.1282L55.2021 35.5168C55.8813 34.4619 56.6783 33.4704 57.5885 32.5602Z" stroke="#193554" stroke-width="4"/>
<path d="M63.6673 7.6147L63.6673 7.61468C60.8818 6.39622 56.994 5.71094 53 5.71094C49.006 5.71094 45.1182 6.39622 42.3327 7.61468L42.5331 8.07277L42.3327 7.6147C41.1535 8.13066 40.3587 8.66203 39.8496 9.11624C39.5957 9.34278 39.4073 9.55513 39.2779 9.74237C39.2135 9.83574 39.1593 9.92917 39.1195 10.0204C39.0836 10.1028 39.043 10.2202 39.043 10.3516C39.043 10.4829 39.0836 10.6003 39.1195 10.6827C39.1593 10.774 39.2135 10.8674 39.2779 10.9608C39.4073 11.148 39.5957 11.3603 39.8496 11.5869C40.3587 12.0411 41.1535 12.5725 42.3327 13.0884L42.3327 13.0884C45.1182 14.3069 49.006 14.9922 53 14.9922C56.994 14.9922 60.8818 14.3069 63.6673 13.0884L63.6673 13.0884C64.8465 12.5725 65.6413 12.0411 66.1504 11.5869C66.4043 11.3603 66.5927 11.148 66.7221 10.9608C66.7865 10.8674 66.8407 10.774 66.8805 10.6827C66.9164 10.6003 66.957 10.4829 66.957 10.3516C66.957 10.2202 66.9164 10.1028 66.8805 10.0204C66.8407 9.92917 66.7865 9.83574 66.7221 9.74237C66.5927 9.55513 66.4043 9.34278 66.1504 9.11624C65.6413 8.66203 64.8465 8.13066 63.6673 7.6147ZM53 20.2031C48.2084 20.2031 43.6788 19.365 40.2442 17.8623C37.3948 16.6157 35.8004 15.1497 34.9155 13.8074C34.0307 12.4655 33.832 11.2121 33.832 10.3516C33.832 9.49105 34.0307 8.23763 34.9155 6.89568C35.8004 5.55338 37.3948 4.08745 40.2442 2.8408C43.6788 1.33812 48.2084 0.5 53 0.5C57.7916 0.5 62.3212 1.33812 65.7558 2.8408C68.6052 4.08745 70.1996 5.55338 71.0845 6.89568C71.9693 8.23763 72.168 9.49105 72.168 10.3516C72.168 11.2121 71.9693 12.4655 71.0845 13.8074C70.1996 15.1497 68.6052 16.6157 65.7558 17.8623C62.3212 19.365 57.7916 20.2031 53 20.2031Z" fill="#193554" stroke="#193554"/>
</g>
<defs>
<clipPath id="clip0_112_283">
<rect width="106" height="106" fill="white"/>
</clipPath>
</defs>
</svg>
