<svg id="Слой_3" data-name="Слой 3" xmlns="http://www.w3.org/2000/svg" viewBox="0 0 2835 2835"><defs><style>.cls-1{fill:#344963;}.cls-2{fill:#ddd0a4;}</style></defs><rect class="cls-1" width="2835" height="2835"/><path class="cls-2" d="M1423,2006c-2,0-4,0-6,.1v-.1c-347.62,0-629.42-258.78-629.42-578S1069.38,850,1417,850h753.5c91.4,0,165.5-73.43,165.5-164s-74.1-164-165.5-164H1417c-534.06,0-967,397.57-967,888s432.94,888,967,888v-.1c2,.06,4,.1,6,.1,96.1,0,174-65.37,174-146S1519.1,2006,1423,2006Z"/><path class="cls-2" d="M2157.43,1260H1416.57c-89.41,0-163,71-167.37,159.36,6.35,168.11,158.22,173.51,172.7,173.64H1508c267.86,0,485,211.32,485,472v87c0,174.21,154,177.94,163.92,178h.51c92.16,0,167.57-75.41,167.57-167.57V1427.57C2325,1335.41,2249.59,1260,2157.43,1260Z"/></svg>